<svg width="512" height="183.46" xmlns="http://www.w3.org/2000/svg">
 <!-- Created with Method Draw - http://github.com/duopixel/Method-Draw/ -->

 <g>
  <title>background</title>
  <rect fill="none" id="canvas_background" height="185.46" width="514" y="-1" x="-1"/>
 </g>
 <g>
  <title>Layer 1</title>
  <g id="svg_21">
   <g id="svg_4" transform="matrix(1.8574, 0, 0, 1.86391, -381.616, -295.552)">
    <path d="m305.96751,199.01776l0,17.096c0,2.297 -1.869,4.167 -4.167,4.167l-5.253,0c-2.297,0 -4.167,-1.869 -4.167,-4.167l0,-17.096c0,-2.297 1.869,-4.167 4.167,-4.167l5.253,0c2.298,0.001 4.167,1.87 4.167,4.167zm174.067,-19.077l0,55.25c0,11.786 -9.589,21.375 -21.375,21.375l-230.75,0c-11.786,0 -21.375,-9.589 -21.375,-21.375l0,-55.25c0,-11.786 9.589,-21.375 21.375,-21.375l230.75,0c11.786,0 21.375,9.589 21.375,21.375zm-205.339,47.84c0,-4.142 -3.358,-7.5 -7.5,-7.5l-18.228,0l0,-32.929c0,-4.142 -3.358,-7.5 -7.5,-7.5s-7.5,3.358 -7.5,7.5l0,40.429c0,4.142 3.358,7.5 7.5,7.5l25.728,0c4.142,0 7.5,-3.358 7.5,-7.5zm46.272,-28.763c0,-10.568 -8.598,-19.167 -19.167,-19.167l-5.253,0c-10.568,0 -19.167,8.598 -19.167,19.167l0,17.096c0,10.568 8.598,19.167 19.167,19.167l5.253,0c10.569,0 19.167,-8.598 19.167,-19.167l0,-17.096zm51.014,17.096c0,-4.142 -3.358,-7.5 -7.5,-7.5l-6.822,0c-4.142,0 -7.5,3.358 -7.5,7.5c0,1.542 0.465,2.975 1.263,4.167l-3.86,0c-2.297,0 -4.167,-1.869 -4.167,-4.167l0,-17.096c0,-2.297 1.869,-4.167 4.167,-4.167l5.253,0c1.303,0 2.217,0.565 2.754,1.04c3.106,2.742 7.845,2.446 10.586,-0.659c2.741,-3.105 2.446,-7.845 -0.659,-10.586c-3.502,-3.092 -8.006,-4.794 -12.681,-4.794l-5.253,0c-10.568,0 -19.167,8.598 -19.167,19.167l0,17.096c0,10.568 8.598,19.167 19.167,19.167l5.253,0c10.568,-0.001 19.166,-8.599 19.166,-19.168zm22.233,-28.762c0,-4.142 -3.358,-7.5 -7.5,-7.5s-7.5,3.358 -7.5,7.5l0,40.429c0,4.142 3.358,7.5 7.5,7.5s7.5,-3.358 7.5,-7.5l0,-40.429zm55.75,0c0,-4.142 -3.358,-7.5 -7.5,-7.5s-7.5,3.358 -7.5,7.5l0,18.6l-18.084,-23.209c-1.968,-2.527 -5.323,-3.525 -8.353,-2.483c-3.029,1.041 -5.063,3.89 -5.063,7.093l0,40.429c0,4.142 3.358,7.5 7.5,7.5s7.5,-3.358 7.5,-7.5l0,-18.6l18.084,23.209c1.449,1.86 3.649,2.891 5.917,2.891c0.813,0 1.636,-0.133 2.436,-0.407c3.029,-1.041 5.063,-3.891 5.063,-7.093l0,-40.43z" fill="#ffffff" id="svg_5"/>
    <g id="svg_6"/>
    <g id="svg_7"/>
    <g id="svg_8"/>
    <g id="svg_9"/>
    <g id="svg_10"/>
    <g id="svg_11"/>
    <g id="svg_12"/>
    <g id="svg_13"/>
    <g id="svg_14"/>
    <g id="svg_15"/>
    <g id="svg_16"/>
    <g id="svg_17"/>
    <g id="svg_18"/>
    <g id="svg_19"/>
    <g id="svg_20"/>
   </g>
  </g>
  <text fill="#000000" stroke="null" stroke-width="0" stroke-opacity="null" x="257.5" y="219" id="svg_24" font-size="24" font-family="Helvetica, Arial, sans-serif" text-anchor="start" xml:space="preserve" transform="matrix(13.7628, 0, 0, 1, -3286.41, 0)"/>
  <rect fill="#ffffff" stroke="null" stroke-width="NaN" stroke-opacity="null" x="36.50001" y="29" width="431" height="118" id="svg_25"/>
  <text fill="#15c3d6" stroke="null" stroke-width="0" stroke-opacity="null" x="-405.55415" y="56.02712" id="svg_27" font-size="24" font-family="Helvetica, Arial, sans-serif" text-anchor="start" xml:space="preserve" transform="matrix(4.93963, 0, 0, 5.19059, 2069.64, -154.933)" font-weight="bold">LOGIN</text>
 </g>
</svg>